<svg width="40" height="40" viewBox="0 0 40 40" fill="none" xmlns="http://www.w3.org/2000/svg">
<circle cx="20" cy="20" r="20" fill="#2F2F2F"/>
<path d="M31.5309 17.825H20.2402V22.4656H26.6902C26.4121 23.9656 25.5684 25.2344 24.2965 26.0844C23.2215 26.8031 21.8496 27.2281 20.2371 27.2281C17.1152 27.2281 14.4746 25.1187 13.5309 22.2844C13.2934 21.5656 13.1559 20.7969 13.1559 20.0063C13.1559 19.2156 13.2934 18.4469 13.5309 17.7281C14.4777 14.8969 17.1184 12.7875 20.2402 12.7875C21.9996 12.7875 23.5777 13.3938 24.8215 14.5813L28.259 11.1406C26.1809 9.20312 23.4715 8.01562 20.2402 8.01562C15.5559 8.01562 11.5027 10.7031 9.53086 14.6219C8.71836 16.2406 8.25586 18.0719 8.25586 20.0094C8.25586 21.9469 8.71836 23.775 9.53086 25.3937C11.5027 29.3125 15.5559 32 20.2402 32C23.4777 32 26.1902 30.925 28.1715 29.0938C30.4371 27.0062 31.7465 23.9313 31.7465 20.2781C31.7465 19.4281 31.6715 18.6125 31.5309 17.825Z" fill="white"/>
</svg>
