<svg width="40" height="40" viewBox="0 0 40 40" fill="none" xmlns="http://www.w3.org/2000/svg">
<circle cx="20" cy="20" r="20" fill="#2F2F2F"/>
<path d="M26.4367 19.648C26.4258 17.7832 27.2707 16.3777 28.977 15.3414C28.0227 13.9742 26.5789 13.2223 24.6758 13.0773C22.8738 12.9352 20.9023 14.1273 20.1805 14.1273C19.4176 14.1273 17.673 13.1266 16.3004 13.1266C13.4676 13.1703 10.457 15.3852 10.457 19.8914C10.457 21.223 10.7004 22.5984 11.1871 24.0148C11.8379 25.8797 14.184 30.4488 16.6312 30.375C17.9109 30.3449 18.816 29.4672 20.4812 29.4672C22.0973 29.4672 22.934 30.375 24.3613 30.375C26.8305 30.3395 28.9523 26.1859 29.5703 24.3156C26.259 22.7543 26.4367 19.7438 26.4367 19.648V19.648ZM23.5629 11.3082C24.9492 9.66211 24.8234 8.16367 24.7824 7.625C23.5574 7.69609 22.141 8.45898 21.3344 9.39688C20.4457 10.4031 19.9234 11.6473 20.0355 13.05C21.359 13.1512 22.5676 12.4703 23.5629 11.3082V11.3082Z" fill="white"/>
</svg>
