<svg width="1440" height="133" viewBox="0 0 1440 133" fill="none" xmlns="http://www.w3.org/2000/svg">
<rect width="1440" height="133" fill="#FBCB50"/>
<path d="M116 115V65.56L124.08 73.24H106.4V59H134.88V115H116Z" fill="url(#paint0_linear_51_290)"/>
<path d="M340.24 115V103.4L360.48 84.68C361.76 83.4533 362.693 82.3867 363.28 81.48C363.92 80.5733 364.347 79.7733 364.56 79.08C364.773 78.3333 364.88 77.64 364.88 77C364.88 75.6133 364.427 74.5467 363.52 73.8C362.613 73 361.253 72.6 359.44 72.6C357.787 72.6 356.213 73.0533 354.72 73.96C353.227 74.8133 352.053 76.0933 351.2 77.8L336.96 70.68C338.987 66.84 342.027 63.72 346.08 61.32C350.133 58.92 355.173 57.72 361.2 57.72C365.627 57.72 369.547 58.44 372.96 59.88C376.373 61.32 379.04 63.3467 380.96 65.96C382.88 68.5733 383.84 71.6667 383.84 75.24C383.84 77.0533 383.6 78.8667 383.12 80.68C382.693 82.4933 381.787 84.4133 380.4 86.44C379.013 88.4133 376.96 90.6267 374.24 93.08L359.04 106.92L356.08 100.36H385.12V115H340.24Z" fill="url(#paint1_linear_51_290)"/>
<path d="M609.6 115.28C605.76 115.28 601.867 114.853 597.92 114C593.973 113.147 590.507 111.893 587.52 110.24L593.92 96.32C596.32 97.7067 598.827 98.7467 601.44 99.44C604.107 100.08 606.613 100.4 608.96 100.4C611.093 100.4 612.827 100.053 614.16 99.36C615.547 98.6133 616.24 97.52 616.24 96.08C616.24 94.8533 615.733 93.92 614.72 93.28C613.707 92.5867 612 92.24 609.6 92.24H602.16V80.64L616.64 65.92L618.32 72.24H590.4V58H632.16V69.6L617.68 84.32L608.64 79.2H613.6C620.64 79.2 626 80.7733 629.68 83.92C633.36 87.0667 635.2 91.12 635.2 96.08C635.2 99.28 634.293 102.347 632.48 105.28C630.72 108.213 627.947 110.613 624.16 112.48C620.427 114.347 615.573 115.28 609.6 115.28Z" fill="url(#paint2_linear_51_290)"/>
<path d="M830.84 105.4V93.4L854.6 59H873.96L851.08 93.4L842.28 90.76H885.64V105.4H830.84ZM859.88 115V105.4L860.44 90.76V82.2H878.2V115H859.88Z" fill="url(#paint3_linear_51_290)"/>
<path d="M1109.48 115.28C1105.64 115.28 1101.75 114.853 1097.8 114C1093.85 113.147 1090.39 111.893 1087.4 110.24L1093.8 96.32C1096.2 97.7067 1098.71 98.7467 1101.32 99.44C1103.93 100.08 1106.41 100.4 1108.76 100.4C1110.89 100.4 1112.65 100.027 1114.04 99.28C1115.43 98.5333 1116.12 97.44 1116.12 96C1116.12 95.2 1115.88 94.5067 1115.4 93.92C1114.92 93.28 1114.07 92.8 1112.84 92.48C1111.67 92.16 1109.93 92 1107.64 92H1091.4L1094.2 58H1131.4V72.24H1100.84L1110.36 64.16L1108.68 85.84L1099.16 77.76H1112.2C1117.75 77.76 1122.17 78.56 1125.48 80.16C1128.84 81.76 1131.27 83.92 1132.76 86.64C1134.31 89.3067 1135.08 92.2933 1135.08 95.6C1135.08 98.9067 1134.17 102.08 1132.36 105.12C1130.6 108.107 1127.83 110.56 1124.04 112.48C1120.31 114.347 1115.45 115.28 1109.48 115.28Z" fill="url(#paint4_linear_51_290)"/>
<defs>
<linearGradient id="paint0_linear_51_290" x1="120.5" y1="37" x2="120.5" y2="133" gradientUnits="userSpaceOnUse">
<stop stop-color="white"/>
<stop offset="0.864583" stop-color="white" stop-opacity="0"/>
</linearGradient>
<linearGradient id="paint1_linear_51_290" x1="361.5" y1="37" x2="361.5" y2="133" gradientUnits="userSpaceOnUse">
<stop stop-color="white"/>
<stop offset="0.864583" stop-color="white" stop-opacity="0"/>
</linearGradient>
<linearGradient id="paint2_linear_51_290" x1="611.5" y1="36" x2="611.5" y2="113" gradientUnits="userSpaceOnUse">
<stop stop-color="white"/>
<stop offset="0.864583" stop-color="white" stop-opacity="0"/>
</linearGradient>
<linearGradient id="paint3_linear_51_290" x1="857.5" y1="37" x2="857.5" y2="114" gradientUnits="userSpaceOnUse">
<stop stop-color="white"/>
<stop offset="0.864583" stop-color="white" stop-opacity="0"/>
</linearGradient>
<linearGradient id="paint4_linear_51_290" x1="1111" y1="36" x2="1111" y2="113" gradientUnits="userSpaceOnUse">
<stop stop-color="white"/>
<stop offset="0.864583" stop-color="white" stop-opacity="0"/>
</linearGradient>
</defs>
</svg>
